# xmcd
#
# Track frame offsets:
#	150
#	11042
#	22445
#	38630
#	57498
#	75560
#	87870
#	102206
#	116918
#	128752
#	145312
#	166229
#	183555
#	199454
#	215095
#	233790
#	246292
#	266774
#	282021
#	298600
#
# Disc length: 4166 seconds
#
# Revision: 1
# Processed by: cddbd v1.4PL0 Copyright (c) Steve Scherf et al.
# Submitted via: audiograbber 1.80.04
#
DISCID=32104414
DTITLE=Various Artist - O Sister, Whare Art Thou  Disk Two
DYEAR=2002
DGENRE=Country
TTITLE0=Forester Sisters (The) - I've Just Seen A Face 
TTITLE1=Charlene Carter - My Dixie Darlin' 
TTITLE2=Sharon Shannon - Man of Constant Sorrow 
TTITLE3=Lynn Miles - You Don't Love Me Anymore 
TTITLE4=Chalee Tennison - Go Back 
TTITLE5=Stacey Earle - Promise You Anything 
TTITLE6=K.D. Lang - Big Boned Gal 
TTITLE7=Wynonna - Girls With Guitars 
TTITLE8=Martina McBride - My Baby Loves Me 
TTITLE9=Eva Cassidy - Penny To My Name 
TTITLE10=Nanci Griffith - Trouble In The Fields 
TTITLE11=Maria McKee - Wayfarin' Stranger 
TTITLE12=Oh Susanna - Sleepy Little Sailor 
TTITLE13=Linda Gail Lewis - The Dark End Of The Street 
TTITLE14=Be Good Tanyas (The) - The Littlelest Birds 
TTITLE15=Rhonda Vincent - Is The Grass Any Bluer 
TTITLE16=Hazel Dickens - West Virginia, My Home 
TTITLE17=Gillian Welsch, David Rawlings And David Steele - Wind And Rain 
TTITLE18=Suzanne Thomas - Leaving This Land 
TTITLE19=I Will Always Love You  - Dolly Parton
EXTD=
EXTT0=
EXTT1=
EXTT2=
EXTT3=
EXTT4=
EXTT5=
EXTT6=
EXTT7=
EXTT8=
EXTT9=
EXTT10=
EXTT11=
EXTT12=
EXTT13=
EXTT14=
EXTT15=
EXTT16=
EXTT17=
EXTT18=
EXTT19=
PLAYORDER=
